<?xml version="1.0" encoding="utf-8"?>
<!-- Generator: Adobe Illustrator 22.0.1, SVG Export Plug-In . SVG Version: 6.00 Build 0)  -->
<svg version="1.1" id="Lag_1" xmlns="http://www.w3.org/2000/svg" xmlns:xlink="http://www.w3.org/1999/xlink" x="0px" y="0px"
	 viewBox="0 0 768 1366" style="enable-background:new 0 0 768 1366;" xml:space="preserve">
<style type="text/css">
	.st0{fill:#B7B7B7;}
	.st1{fill:#FFFFFF;}
	.st2{fill:#020202;stroke:#070001;stroke-miterlimit:10;}
	.st3{fill:#FF4C3C;stroke:#070001;stroke-miterlimit:10;}
	.st4{fill:none;stroke:#070001;stroke-width:2;stroke-miterlimit:10;}
	.st5{font-family:'Arial-Black';}
	.st6{font-size:100.9177px;}
	.st7{fill:#070001;}
	.st8{font-size:15.1377px;}
	.st9{font-size:47.9359px;}
	.st10{fill:none;stroke:#000000;stroke-width:2;stroke-miterlimit:10;}
</style>
<path class="st0" d="M741.3,1114.2H34.1c-5.3,0-9.7-4.3-9.7-9.7V33.9c0-5.3,4.3-9.7,9.7-9.7h707.3c5.3,0,9.7,4.3,9.7,9.7v1070.6
	C751,1109.8,746.7,1114.2,741.3,1114.2z"/>
<path class="st1" d="M655.5,662.6H122.4c-4,0-7.2-3.2-7.2-7.2V122.3c0-4,3.2-7.2,7.2-7.2h533.1c4,0,7.2,3.2,7.2,7.2v533.1
	C662.7,659.4,659.5,662.6,655.5,662.6z"/>
<g>
	<path class="st2" d="M199.6,980.5h-27.4c-4.9,0-9-4-9-9V759.9c0-4.9,4-9,9-9h27.4c4.9,0,9,4.1,9,9v211.6
		C208.6,976.4,204.5,980.5,199.6,980.5z"/>
	<path class="st2" d="M289.9,887.1H79.3c-5.2,0-9.5-4.3-9.5-9.5v-28.9c0-5.2,4.3-9.5,9.5-9.5h210.6c5.2,0,9.5,4.3,9.5,9.5v28.9
		C299.4,882.8,295.1,887.1,289.9,887.1z"/>
</g>
<circle class="st3" cx="636.2" cy="774.8" r="69.4"/>
<circle class="st3" cx="535.3" cy="911.1" r="69.4"/>
<line class="st4" x1="25.7" y1="70.9" x2="749.7" y2="70.9"/>
<line class="st4" x1="114" y1="23" x2="114" y2="70.9"/>
<text transform="matrix(1 0 0 1 597.5205 808.4756)" class="st5 st6">A</text>
<text transform="matrix(1 0 0 1 496.6035 948.0781)" class="st5 st6">B</text>
<g>
	<path class="st7" d="M267.9,1037.2c0.4-1,0.9-1.9,1.4-2.9l1.5-2.8c1-1.8,2-3.6,3.1-5.4c2.9-2.8,5.7-5.7,8.5-8.5l17-17l17-17
		l8.5-8.5c1.8-1.1,3.6-2.1,5.4-3.1c1.8-1,3.7-2,5.6-2.9c-0.9,1.9-1.9,3.8-2.9,5.6c-1,1.8-2.1,3.6-3.1,5.4l-8.5,8.5l-17,17l-17,17
		c-2.8,2.8-5.7,5.7-8.5,8.5c-1.8,1.1-3.6,2.1-5.4,3.1l-2.8,1.5C269.8,1036.3,268.8,1036.8,267.9,1037.2z"/>
</g>
<g>
	<path class="st7" d="M343.5,1039.7c0.4-1,0.9-1.9,1.4-2.9l1.5-2.8c1-1.8,2-3.6,3.1-5.4c2.9-2.8,5.7-5.7,8.5-8.5l17-17l17-17
		l8.5-8.5c1.8-1.1,3.6-2.1,5.4-3.1c1.8-1,3.7-2,5.6-2.9c-0.9,1.9-1.9,3.8-2.9,5.6c-1,1.8-2.1,3.6-3.1,5.4l-8.5,8.5l-17,17l-17,17
		c-2.8,2.8-5.7,5.7-8.5,8.5c-1.8,1.1-3.6,2.1-5.4,3.1l-2.8,1.5C345.4,1038.8,344.5,1039.3,343.5,1039.7z"/>
</g>
<text transform="matrix(0.7071 -0.7071 0.7071 0.7071 278.6995 1066.5121)" class="st5 st8">Select</text>
<text transform="matrix(0.7071 -0.7071 0.7071 0.7071 356.1356 1067.6519)" class="st5 st8">Start</text>
<text transform="matrix(1 0 0 1 114.7979 710.0801)" class="st5 st9">The Game Boys</text>
<line class="st10" x1="708.1" y1="23" x2="708.1" y2="70.9"/>
</svg>
